<svg width="204" height="58" viewBox="0 0 204 58" fill="none" xmlns="http://www.w3.org/2000/svg">
<path d="M108.685 3.46661L102.884 15.894L97.0752 3.46661H108.685Z" fill="#FFCD1C"/>
<path d="M167.467 28.0516C167.467 26.0566 165.838 24.446 163.839 24.446C161.839 24.446 160.21 26.0648 160.21 28.0516C160.21 30.0465 161.839 31.6571 163.839 31.6571C165.838 31.6571 167.467 30.0465 167.467 28.0516Z" fill="#FFCD1C"/>
<path d="M10.5157 21.241C9.75872 20.7341 9.00996 20.5461 8.24474 20.5297C7.65232 20.5134 5.01931 20.5052 5.01931 20.5052L4.99463 25.9013C4.99463 25.9013 7.80042 25.9258 8.21183 25.9095C8.74666 25.8931 9.28148 25.8032 9.79163 25.607C11.824 24.8384 12.2683 22.4265 10.5157 21.241Z" fill="#FFCD1C"/>
<path d="M157.025 5.86214L153.907 0H151.833V8.56837H153.339V2.08486L156.795 8.56837H158.531V0H157.025V5.86214Z" fill="white"/>
<path d="M163.032 1.84778C162.102 1.84778 161.345 2.16664 160.794 2.78801C160.251 3.40938 159.971 4.2515 159.971 5.28984C159.971 6.33636 160.251 7.17848 160.794 7.79167C161.345 8.41304 162.102 8.73191 163.032 8.73191C163.954 8.73191 164.711 8.41304 165.262 7.79167C165.813 7.17848 166.085 6.33636 166.085 5.28984C166.085 4.24332 165.805 3.4012 165.262 2.78801C164.711 2.16664 163.962 1.84778 163.032 1.84778ZM164.538 5.29802C164.538 6.00115 164.398 6.53258 164.126 6.87597C163.863 7.20301 163.501 7.36653 163.032 7.36653C162.555 7.36653 162.193 7.20301 161.929 6.86779C161.658 6.52441 161.518 5.99297 161.518 5.28984C161.518 4.56218 161.658 4.03075 161.929 3.69554C162.193 3.3685 162.555 3.21316 163.032 3.21316C163.509 3.21316 163.863 3.3685 164.126 3.69554C164.398 4.03893 164.538 4.57036 164.538 5.29802Z" fill="white"/>
<path d="M170.791 1.84778C170.396 1.84778 170.009 1.92954 169.639 2.09306C169.417 2.19117 169.203 2.30563 168.989 2.44462V2.01947H167.467V8.56839H168.989V3.92446C169.219 3.75277 169.466 3.61378 169.721 3.49932C170.264 3.26221 170.783 3.28674 171.062 3.4012C171.186 3.45844 171.276 3.53202 171.35 3.64648C171.416 3.75277 171.466 3.91629 171.499 4.12068C171.531 4.34961 171.548 4.60306 171.548 4.87287V8.56839H173.07V4.39049C173.07 3.58925 172.873 2.9597 172.494 2.52638C172.091 2.0767 171.523 1.84778 170.791 1.84778Z" fill="white"/>
<path d="M178.55 4.05524H174.65V5.5269H178.55V4.05524Z" fill="white"/>
<path d="M183.356 4.71751C183.199 4.68481 183.002 4.64393 182.755 4.59487C182.525 4.55399 182.319 4.51311 182.13 4.46406C181.751 4.37412 181.57 4.27601 181.488 4.20243C181.389 4.12067 181.348 3.99803 181.348 3.82633C181.348 3.63011 181.43 3.4993 181.611 3.40119C182.047 3.15591 182.763 3.15591 183.463 3.40119C183.808 3.52382 184.113 3.67917 184.36 3.85086L184.483 3.89992H184.812V2.42007L184.68 2.35467C184.417 2.21568 184.08 2.10121 183.693 2.01128C182.878 1.82323 182.056 1.82323 181.397 2.03581C181.052 2.14209 180.764 2.29744 180.533 2.48548C180.295 2.6817 180.114 2.91063 179.999 3.16408C179.883 3.41754 179.818 3.68734 179.818 3.9735C179.818 4.42318 179.949 4.81562 180.213 5.13448C180.476 5.45334 180.887 5.68227 181.48 5.83761C181.677 5.88667 181.899 5.93572 182.138 5.98478C182.368 6.02566 182.558 6.06654 182.697 6.09924C183.158 6.20553 183.323 6.30364 183.38 6.36087C183.463 6.43445 183.504 6.55709 183.504 6.72061C183.504 6.94136 183.422 7.08853 183.249 7.19481C182.854 7.42374 182.064 7.4728 181.258 7.17846C180.879 7.04765 180.542 6.8596 180.237 6.63885L180.114 6.5898H179.785V8.13505L179.925 8.20045C180.188 8.33127 180.517 8.45391 180.92 8.56837C181.315 8.68283 181.759 8.74006 182.228 8.74006C183.076 8.74006 183.767 8.54384 184.269 8.15957C184.787 7.75895 185.059 7.23569 185.059 6.60615C185.059 6.09924 184.903 5.69044 184.598 5.37158C184.294 5.04455 183.882 4.84015 183.356 4.71751Z" fill="white"/>
<path d="M187.84 0.277954H186.318V2.01943H185.626V3.36845H186.318V6.34449C186.318 7.13755 186.507 7.7344 186.877 8.11867C187.247 8.50293 187.782 8.69098 188.473 8.69098C188.663 8.69098 188.868 8.67463 189.115 8.64192C189.354 8.60922 189.576 8.56834 189.773 8.51111L189.954 8.46205V7.3583L189.897 7.11303H189.65L189.56 7.12938C189.485 7.16208 189.362 7.19479 189.197 7.24384C189.041 7.28472 188.885 7.30925 188.737 7.30925C188.424 7.30925 188.276 7.26837 188.202 7.23567C188.111 7.19479 188.037 7.1212 187.98 7.02309C187.914 6.90045 187.873 6.76146 187.856 6.62247C187.84 6.45078 187.832 6.2055 187.832 5.89481V3.36845H189.954V2.01943H187.832V0.277954H187.84Z" fill="white"/>
<path d="M193.616 1.84778C192.686 1.84778 191.929 2.16664 191.378 2.78801C190.835 3.40938 190.555 4.2515 190.555 5.28984C190.555 6.33636 190.835 7.17848 191.378 7.79167C191.929 8.41304 192.686 8.73191 193.616 8.73191C194.538 8.73191 195.295 8.41304 195.846 7.79167C196.397 7.17848 196.669 6.33636 196.669 5.28984C196.669 4.24332 196.389 3.4012 195.846 2.78801C195.295 2.16664 194.546 1.84778 193.616 1.84778ZM195.122 5.29802C195.122 6.00115 194.982 6.54076 194.71 6.87597C194.447 7.20301 194.093 7.36653 193.616 7.36653C193.139 7.36653 192.777 7.20301 192.513 6.86779C192.242 6.52441 192.102 5.99297 192.102 5.28984C192.102 4.56218 192.242 4.03075 192.513 3.69554C192.777 3.3685 193.139 3.21316 193.616 3.21316C194.093 3.21316 194.447 3.3685 194.71 3.69554C194.99 4.03893 195.122 4.57036 195.122 5.29802Z" fill="white"/>
<path d="M203.251 2.77984C202.79 2.16664 202.148 1.85596 201.334 1.85596C200.914 1.85596 200.511 1.93772 200.141 2.10941C199.943 2.19935 199.754 2.30563 199.573 2.4201V2.01948H198.051V10.8086H199.573V8.41305C199.729 8.47845 199.894 8.53569 200.042 8.57656C200.651 8.74008 201.449 8.74008 202.099 8.44575C202.453 8.28223 202.765 8.05331 203.029 7.76715C203.309 7.46464 203.531 7.08855 203.679 6.64705C203.827 6.21372 203.909 5.73134 203.909 5.21626C203.917 4.19427 203.695 3.3685 203.251 2.77984ZM202.362 5.24897C202.362 5.93574 202.222 6.459 201.943 6.79421C201.671 7.12125 201.293 7.27659 200.791 7.27659C200.544 7.27659 200.322 7.25207 200.132 7.21119C199.968 7.17031 199.787 7.11308 199.573 7.02314V3.88359C199.803 3.72007 200.042 3.58925 200.281 3.48297C200.552 3.3685 200.815 3.31127 201.07 3.31127C201.507 3.31127 201.819 3.45026 202.025 3.75277C202.247 4.07163 202.362 4.57036 202.362 5.24897Z" fill="white"/>
<path d="M133.913 40.5036C129.33 40.4381 125.438 38.9174 122.689 35.1074C118.296 29 120.739 20.1046 127.626 16.9569C133.238 14.3978 140.1 15.5752 144.066 19.7776C149.916 25.9831 147.497 36.4156 139.516 39.4652C137.714 40.1602 135.846 40.4954 133.913 40.5036ZM133.929 22.1813C130.342 22.165 127.717 24.6341 127.7 28.0271C127.684 31.4038 130.317 33.9383 133.863 33.9546C137.418 33.971 140.067 31.4773 140.092 28.0925C140.108 24.6913 137.517 22.1977 133.929 22.1813Z" fill="white"/>
<path d="M163.847 40.4953C158.836 40.3563 154.664 38.6149 152.048 34.1263C148.501 28.0434 151.019 20.1128 157.429 17.0141C162.703 14.4632 169.574 15.477 173.646 19.3769C179.184 24.6749 178.674 35.6961 169.541 39.4325C167.722 40.1765 165.822 40.4953 163.847 40.4953ZM163.83 22.1731C160.251 22.1813 157.659 24.6668 157.676 28.0843C157.692 31.4691 160.35 33.971 163.896 33.9464C167.426 33.9137 170.117 31.3465 170.084 28.0189C170.059 24.6504 167.401 22.1649 163.83 22.1731Z" fill="white"/>
<path d="M187.939 15.9104H181.208V40.4381C181.208 40.4381 189.255 40.479 189.255 40.4954C190.818 40.479 192.374 40.4054 193.929 40.1193C202.626 38.5086 206.814 28.2478 201.68 21.053C199.285 17.7009 195.838 16.3273 191.88 15.984C190.563 15.8695 187.922 15.894 187.939 15.9104ZM196.249 28.9919C196.01 31.1666 194.719 32.5238 192.711 33.2679C191.666 33.6521 190.58 33.6848 189.486 33.7094H188.523V22.6146H189.963C191.526 22.6228 192.563 22.9335 193.723 23.5794C195.846 24.7649 196.496 26.7026 196.249 28.9919Z" fill="white"/>
<path d="M22.4628 15.7714H19.9614V40.4627H22.4628V15.7714Z" fill="white"/>
<path d="M87.4405 40.4708H90.1476L78.5459 15.5179V15.5506V15.5179L66.936 40.4708H69.6431L71.5109 36.481H85.581L87.4405 40.4708ZM72.671 33.9873L78.5459 21.4209V21.3882V21.4209L84.4208 33.9873H72.671Z" fill="white"/>
<path d="M64.9775 15.7714H47.4434V18.2568H60.6166C59.0862 20.8486 47.4351 40.4708 47.4434 40.4708C47.4434 40.4708 47.6408 40.4708 47.9288 40.4708L47.9124 40.5035H64.9857V38.018H51.8783L64.9775 15.7714Z" fill="white"/>
<path d="M44.3413 15.7714H26.8071V18.2568H39.9804C38.4499 20.8486 26.7989 40.4708 26.8071 40.4708C26.8071 40.4708 27.0046 40.4708 27.2926 40.4708L27.2761 40.5035H44.3495V38.018H31.2421L44.3413 15.7714Z" fill="white"/>
<path d="M9.98072 15.9021C8.68068 15.7713 6.77175 15.7713 5.53753 15.7795H0V40.4708H2.50135V31.1502H3.57101V31.1584C3.72734 31.1666 3.97419 31.1666 4.38559 31.1502C4.55838 31.1421 4.71472 31.1502 4.87928 31.1421H6.50022C6.75529 31.1421 7.01037 31.1421 7.25721 31.1421H7.77558C7.77558 31.1421 7.77558 31.1421 7.77558 31.1339C8.30218 31.1257 8.83701 31.1012 9.41298 31.0439C13.5353 30.6188 16.5961 27.3811 16.5961 23.5139C16.5961 19.1725 13.5353 16.2537 9.98072 15.9021ZM10.9434 28.0597C10.063 28.4358 9.11677 28.6239 8.17053 28.6566C7.43823 28.6811 2.50135 28.6647 2.50135 28.6647V18.265C2.50135 18.265 7.12556 18.265 8.17053 18.2813C9.52817 18.3059 10.8447 18.6574 12.1776 19.6385C15.2714 21.8951 14.5062 26.5472 10.9434 28.0597Z" fill="white"/>
<path d="M113.013 15.8041L107.262 28.395L102.885 19.3933L98.499 28.395L92.7475 15.8041H85.2764L96.7382 40.5035H99.0009L102.885 32.2622L106.768 40.5035H109.031L120.493 15.8041H113.013Z" fill="white"/>
<path d="M5.01054 51.1486C5.16687 51.0259 5.30675 50.8869 5.42194 50.7234C5.63587 50.4209 5.75107 50.0612 5.75107 49.6442C5.75107 49.2763 5.67701 48.9574 5.52891 48.6876C5.3808 48.4096 5.13396 48.1889 4.80483 48.0172C4.52508 47.87 4.22886 47.7801 3.92442 47.731C3.62821 47.6901 3.20035 47.6656 2.61615 47.6656H0.0654297V55.8661H3.06047C3.61998 55.8661 4.08898 55.817 4.45925 55.7107C4.83774 55.6044 5.19155 55.4327 5.50422 55.1793C5.77575 54.9667 5.99791 54.6969 6.16247 54.3699C6.32704 54.0428 6.40932 53.6667 6.40932 53.2498C6.40932 52.6611 6.23653 52.1542 5.89917 51.7618C5.66056 51.492 5.36434 51.2876 5.01054 51.1486ZM1.58763 52.1215H2.96173C3.29086 52.1215 3.57884 52.1378 3.801 52.1624C4.0067 52.1869 4.18772 52.236 4.31937 52.3014C4.51685 52.4077 4.65673 52.5303 4.72255 52.6611C4.7966 52.8083 4.83774 53.0208 4.83774 53.2907C4.83774 53.5196 4.80483 53.7076 4.73078 53.8466C4.65673 53.9856 4.54153 54.1082 4.3852 54.2227C4.22886 54.329 4.02316 54.4026 3.77632 54.4435C3.49656 54.4843 3.14275 54.5089 2.70666 54.5089H1.58763V52.1215ZM4.10544 50.2656C4.05607 50.38 3.97379 50.4781 3.85037 50.5517C3.71049 50.6417 3.57061 50.6907 3.40605 50.7234C3.23326 50.7561 2.98642 50.7725 2.67375 50.7725H1.58763V49.031H2.57501C2.90413 49.031 3.18389 49.0392 3.41428 49.0637C3.61175 49.0801 3.77632 49.1291 3.90797 49.2027C4.0067 49.2599 4.07253 49.3253 4.11367 49.4071C4.16304 49.5052 4.17949 49.6278 4.17949 49.775C4.18772 49.9712 4.15481 50.1347 4.10544 50.2656Z" fill="white"/>
<path d="M11.478 52.3586C11.6508 52.1705 11.8153 51.9089 11.9634 51.5574C12.0704 51.3121 12.1856 51.1404 12.309 51.0504C12.416 50.9687 12.5888 50.9278 12.8027 50.9278H13.4774V49.6033H12.7862C12.2267 49.6033 11.7906 49.7178 11.478 49.9385C11.1735 50.1593 10.9185 50.4863 10.721 50.9115L10.5811 51.2221C10.54 51.3202 10.4906 51.4184 10.4495 51.5001C10.3343 51.7127 10.1944 51.868 10.0381 51.9661C9.93108 52.0316 9.79121 52.0724 9.62664 52.0888V49.6033H8.15381V55.8742H9.62664V53.2252H9.80766L12.2267 55.8742H14.1686L11.1982 52.612C11.2887 52.5385 11.3875 52.4567 11.478 52.3586Z" fill="white"/>
<path d="M17.682 53.4951L16.0528 49.5952H14.4565L16.8756 55.3428L15.6825 58H17.2706L20.8827 49.5952H19.3194L17.682 53.4951Z" fill="white"/>
<path d="M26.1242 49.6115C25.7786 49.5134 25.4248 49.4643 25.0627 49.4643C24.1 49.4643 23.3348 49.7668 22.7753 50.3719C22.2158 50.9687 21.936 51.7618 21.936 52.7429C21.936 53.2743 22.0101 53.7485 22.1582 54.1573C22.3145 54.5661 22.5285 54.9177 22.8082 55.1875C23.088 55.4573 23.4253 55.6699 23.812 55.8007C24.1905 55.9315 24.6102 55.9969 25.0627 55.9969C25.3672 55.9969 25.6716 55.956 25.976 55.8824C26.2805 55.8088 26.6425 55.6699 27.0539 55.4818L27.1938 55.4164V54.19L27.1362 53.9447H26.8071L26.7413 54.002C26.6919 54.0428 26.6014 54.1082 26.4697 54.19C26.3381 54.2799 26.2064 54.3535 26.083 54.4108C25.9349 54.4843 25.7621 54.5497 25.5811 54.5906C25.4001 54.6397 25.2108 54.6642 25.0298 54.6642C24.5197 54.6642 24.1412 54.5089 23.8696 54.1818C23.5899 53.8466 23.45 53.3642 23.45 52.7347C23.45 52.1051 23.5899 51.6146 23.8696 51.2794C24.1412 50.9523 24.5197 50.7888 25.0298 50.7888C25.2931 50.7888 25.5729 50.8461 25.8609 50.9523C26.1488 51.0586 26.4533 51.2303 26.7577 51.4592L26.8811 51.5083H27.2103V50.0366L27.0786 49.9712C26.7742 49.8322 26.4615 49.7096 26.1242 49.6115Z" fill="white"/>
<path d="M32.7478 51.9416H30.3205V49.5952H28.8477V55.8661H30.3205V53.2661H32.7478V55.8661H34.2124V49.5952H32.7478V51.9416Z" fill="white"/>
<path d="M40.696 49.9467C40.4491 49.7668 40.1529 49.636 39.8156 49.5624C39.2231 49.4316 38.3921 49.4153 37.5775 49.5543C37.199 49.6197 36.9193 49.6769 36.7218 49.7341L36.5408 49.7832V50.9605L36.5901 51.2058H36.837L36.9275 51.1895C37.2484 51.0668 37.5693 50.9687 37.8737 50.9033C38.4168 50.7888 38.8611 50.7888 39.256 50.8461C39.4206 50.8706 39.5605 50.9115 39.6674 50.9769C39.7744 51.0341 39.8567 51.1159 39.9061 51.2222C39.9554 51.3121 39.9883 51.4347 39.9883 51.5737C39.5029 51.5983 39.0339 51.6391 38.606 51.6882C38.0876 51.7454 37.6351 51.8599 37.2566 52.0234C36.8699 52.1951 36.5572 52.4404 36.3433 52.7429C36.1294 53.0536 36.0142 53.4624 36.0142 53.9447C36.0142 54.5498 36.2199 55.0485 36.6395 55.4409C37.0509 55.8252 37.5528 56.0214 38.1452 56.0214C38.4497 56.0214 38.7212 55.9887 38.9516 55.9315C39.182 55.8743 39.3795 55.8007 39.5523 55.7189C39.6921 55.6535 39.8402 55.5717 39.9883 55.4655V55.8579H41.453V51.6882C41.453 51.2794 41.3871 50.936 41.2555 50.6498C41.1403 50.3719 40.951 50.1348 40.696 49.9467ZM40.0048 52.8492V54.0756C39.8073 54.2227 39.5852 54.3454 39.3548 54.4598C39.1079 54.5743 38.82 54.6397 38.5155 54.6397C38.1617 54.6397 37.9066 54.5743 37.7503 54.4435C37.6022 54.3208 37.5364 54.141 37.5364 53.8793C37.5364 53.6504 37.594 53.4869 37.7256 53.3642C37.8655 53.2253 38.063 53.119 38.3016 53.0536C38.5237 52.9963 38.8282 52.9473 39.2149 52.9146C39.5029 52.89 39.7662 52.8655 40.0048 52.8492Z" fill="white"/>
<path d="M45.2134 49.6687C44.9089 49.7178 44.6374 49.8241 44.407 49.9712C44.1684 50.1266 43.9627 50.3228 43.8063 50.5681C43.6418 50.8215 43.5595 51.1241 43.5595 51.4838C43.5595 51.9989 43.6912 52.4322 43.9627 52.7592C44.1684 53.0127 44.4646 53.2089 44.8431 53.3561L42.7778 55.8661H44.5633L46.3653 53.5687H47.1552V55.8661H48.628V49.5952H46.1431C45.8058 49.5952 45.4931 49.6197 45.2134 49.6687ZM45.1228 51.1976C45.164 51.1159 45.2298 51.0423 45.3203 50.9932C45.4355 50.9278 45.5343 50.8951 45.6248 50.8788C45.7235 50.8624 45.9127 50.8542 46.1678 50.8542H47.1552V52.3177H46.1925C45.9868 52.3177 45.7893 52.3014 45.6248 52.2687C45.4767 52.2442 45.3615 52.1869 45.2627 52.1133C45.1722 52.0398 45.1146 51.9662 45.0899 51.8926C45.057 51.8027 45.0406 51.6718 45.0406 51.5083C45.057 51.402 45.0735 51.2957 45.1228 51.1976Z" fill="white"/>
<path d="M55.4248 55.8661H56.8894V50.9197H59.3167V55.8661H60.7895V49.5952H55.4248V55.8661Z" fill="white"/>
<path d="M64.4837 53.3479V49.5952H63.0273V55.8661H64.2862L66.9604 52.0561V55.8661H68.425V49.5952H67.1332L64.4837 53.3479Z" fill="white"/>
<path d="M75.9785 49.5952H74.5056V54.5416H72.1277V49.5952H70.6631V55.8661H75.2791V57.256H76.6778V54.5416H75.9785V49.5952Z" fill="white"/>
<path d="M83.6634 49.5952H82.1906V54.5416H79.8127V49.5952H78.3398V55.8661H82.9641V57.256H84.3628V54.5416H83.6634V49.5952Z" fill="white"/>
<path d="M90.2624 49.9467C90.0155 49.7668 89.7193 49.636 89.382 49.5624C88.7895 49.4316 87.9585 49.4153 87.1439 49.5543C86.7654 49.6197 86.4857 49.6769 86.2882 49.7341L86.1072 49.7832V50.9605L86.1565 51.2058H86.4034L86.4939 51.1895C86.8148 51.0668 87.1357 50.9687 87.4401 50.9033C87.9832 50.7888 88.4275 50.7888 88.8224 50.8461C88.987 50.8706 89.1269 50.9115 89.2339 50.9769C89.3408 51.0341 89.4231 51.1159 89.4725 51.2222C89.5218 51.3121 89.5548 51.4347 89.5548 51.5737C89.0693 51.5983 88.6003 51.6391 88.1724 51.6882C87.6541 51.7454 87.2015 51.8599 86.823 52.0234C86.4363 52.1951 86.1236 52.4404 85.9097 52.7429C85.6958 53.0536 85.5806 53.4624 85.5806 53.9447C85.5806 54.5498 85.7863 55.0485 86.2059 55.4409C86.6173 55.8252 87.1192 56.0214 87.7117 56.0214C88.0161 56.0214 88.2876 55.9887 88.518 55.9315C88.7484 55.8743 88.9459 55.8007 89.1187 55.7189C89.2585 55.6535 89.4066 55.5717 89.5548 55.4655V55.8579H91.0194V51.6882C91.0194 51.2794 90.9535 50.936 90.8219 50.6498C90.7149 50.3719 90.5174 50.1348 90.2624 49.9467ZM89.5712 52.8492V54.0756C89.3737 54.2227 89.1516 54.3454 88.9212 54.4598C88.6743 54.5743 88.3864 54.6397 88.0819 54.6397C87.7281 54.6397 87.473 54.5743 87.3167 54.4435C87.1686 54.3208 87.1028 54.141 87.1028 53.8793C87.1028 53.6504 87.1604 53.4869 87.292 53.3642C87.4319 53.2253 87.6294 53.119 87.868 53.0536C88.0901 52.9963 88.3946 52.9473 88.7813 52.9146C89.0775 52.89 89.3408 52.8655 89.5712 52.8492Z" fill="white"/>
<path d="M96.8122 51.541H93.0684V52.9636H96.8122V51.541Z" fill="white"/>
<path d="M98.8857 55.8661H100.359V50.9197H102.778V55.8661H104.25V49.5952H98.8857V55.8661Z" fill="white"/>
<path d="M109.631 49.4398C109.228 49.4398 108.841 49.5215 108.488 49.6769C108.298 49.7586 108.126 49.8568 107.953 49.963V49.5951H106.48V58H107.953V55.7189C108.101 55.7843 108.249 55.8334 108.389 55.8742C108.973 56.0296 109.738 56.0296 110.364 55.7516C110.701 55.5963 111.005 55.3755 111.252 55.0975C111.524 54.8032 111.73 54.4435 111.878 54.0265C112.018 53.6095 112.092 53.1517 112.092 52.6611C112.092 51.68 111.878 50.8869 111.458 50.3228C111.03 49.7341 110.413 49.4398 109.631 49.4398ZM110.602 52.6856C110.602 53.3397 110.471 53.8384 110.199 54.1573C109.936 54.468 109.582 54.6151 109.113 54.6151C108.874 54.6151 108.669 54.5906 108.488 54.5497C108.34 54.517 108.167 54.4598 107.961 54.378V51.3857C108.175 51.2303 108.397 51.1077 108.628 51.0096C108.883 50.9033 109.138 50.846 109.385 50.846C109.796 50.846 110.092 50.9769 110.29 51.2548C110.495 51.5655 110.602 52.0479 110.602 52.6856Z" fill="white"/>
<path d="M118.18 49.9467C117.933 49.7668 117.637 49.636 117.3 49.5624C116.707 49.4316 115.876 49.4153 115.062 49.5543C114.683 49.6197 114.404 49.6769 114.206 49.7341L114.025 49.7832V50.9605L114.075 51.2058H114.321L114.412 51.1895C114.733 51.0668 115.054 50.9687 115.358 50.9033C115.901 50.7888 116.345 50.7888 116.74 50.8461C116.905 50.8706 117.045 50.9115 117.152 50.9769C117.259 51.0341 117.341 51.1159 117.39 51.2222C117.44 51.3121 117.473 51.4347 117.473 51.5737C116.987 51.5983 116.518 51.6391 116.09 51.6882C115.572 51.7454 115.119 51.8599 114.741 52.0234C114.346 52.1951 114.042 52.4404 113.828 52.7429C113.614 53.0536 113.499 53.4624 113.499 53.9447C113.499 54.5498 113.712 55.0485 114.124 55.4409C114.535 55.8252 115.037 56.0214 115.63 56.0214C115.934 56.0214 116.206 55.9887 116.436 55.9315C116.658 55.8743 116.864 55.8007 117.037 55.7189C117.177 55.6535 117.325 55.5717 117.473 55.4655V55.8579H118.937V51.6882C118.937 51.2794 118.872 50.936 118.748 50.6498C118.633 50.3719 118.435 50.1348 118.18 49.9467ZM117.489 52.8492V54.0756C117.292 54.2227 117.07 54.3454 116.839 54.4598C116.592 54.5743 116.304 54.6397 116 54.6397C115.646 54.6397 115.391 54.5743 115.235 54.4435C115.087 54.3208 115.021 54.141 115.021 53.8793C115.021 53.6504 115.078 53.4869 115.21 53.3642C115.35 53.2253 115.547 53.119 115.786 53.0536C116.008 52.9963 116.313 52.9473 116.699 52.9146C116.995 52.89 117.259 52.8655 117.489 52.8492Z" fill="white"/>
<path d="M125.52 52.3831C125.635 52.2932 125.742 52.1787 125.841 52.0643C126.039 51.8108 126.137 51.5083 126.137 51.1649C126.137 50.8788 126.071 50.6171 125.956 50.3964C125.833 50.1756 125.635 49.9876 125.372 49.8486C125.158 49.7341 124.92 49.6606 124.673 49.6279C124.442 49.5951 124.097 49.5788 123.661 49.5788H121.167V55.8497H123.817C124.269 55.8497 124.632 55.8089 124.92 55.7353C125.207 55.6535 125.479 55.5227 125.726 55.3428C125.956 55.1793 126.137 54.9667 126.269 54.7133C126.401 54.4598 126.466 54.1737 126.466 53.8548C126.466 53.4051 126.335 53.0372 126.063 52.7511C125.899 52.6121 125.718 52.4813 125.52 52.3831ZM124.952 53.8793C124.952 54.0102 124.928 54.1164 124.878 54.1982C124.829 54.2881 124.738 54.3617 124.623 54.4271C124.5 54.5007 124.344 54.5416 124.171 54.5661C123.965 54.5906 123.677 54.607 123.299 54.607H122.616V53.2007H123.628C123.891 53.2007 124.097 53.2089 124.245 53.2171C124.368 53.2253 124.483 53.258 124.582 53.307C124.796 53.4051 124.862 53.4869 124.878 53.5278C124.928 53.6095 124.952 53.7322 124.952 53.8793ZM124.59 51.6391C124.557 51.7045 124.5 51.7699 124.409 51.8272C124.311 51.8844 124.22 51.9253 124.13 51.9335C124.023 51.9498 123.842 51.958 123.595 51.958H122.616V50.8624H123.389C123.652 50.8624 123.875 50.8624 124.056 50.8788C124.204 50.8869 124.335 50.9196 124.451 50.9769C124.516 51.0096 124.557 51.0505 124.59 51.1077C124.623 51.1731 124.64 51.2467 124.64 51.3284C124.64 51.4511 124.623 51.5574 124.59 51.6391Z" fill="white"/>
<path d="M129.766 53.3479V49.5952H128.301V55.8661H129.56L132.243 52.0561V55.8661H133.699V49.5952H132.407L129.766 53.3479Z" fill="white"/>
<path d="M136.595 50.9442C136.579 51.3284 136.571 51.6636 136.554 51.9498C136.521 52.7102 136.447 53.2907 136.348 53.6831C136.25 54.051 136.135 54.3045 135.978 54.4516C135.945 54.4843 135.912 54.5089 135.863 54.517C135.764 54.5416 135.69 54.5497 135.55 54.5416C135.493 54.5416 135.443 54.5334 135.361 54.5334H135.114V55.8661H135.361C135.394 55.8661 135.468 55.8661 135.575 55.8742C135.69 55.8742 135.781 55.8824 135.838 55.8824C136.036 55.8824 136.225 55.8497 136.39 55.7925C136.562 55.7271 136.719 55.6371 136.867 55.5145C136.99 55.4 137.114 55.2692 137.229 55.1221C137.344 54.9667 137.451 54.7787 137.542 54.5416C137.64 54.2963 137.714 53.9938 137.772 53.634C137.83 53.2825 137.871 52.8164 137.895 52.2278C137.904 52.0152 137.92 51.7699 137.928 51.5083L137.953 50.9115H139.648V55.8824H141.121V49.6115H136.628L136.595 50.9442Z" fill="white"/>
<path d="M147.802 52.2932C147.53 52.097 147.259 51.9662 146.979 51.9171C146.724 51.8681 146.37 51.8435 145.917 51.8435H144.84V49.587H143.367V55.8579H145.893C146.329 55.8579 146.683 55.817 146.962 55.7434C147.25 55.6617 147.53 55.5227 147.777 55.3346C147.999 55.1711 148.18 54.9586 148.312 54.6887C148.443 54.4271 148.509 54.1328 148.509 53.8221C148.509 53.5032 148.452 53.2171 148.336 52.9555C148.213 52.6938 148.04 52.4731 147.802 52.2932ZM147.004 53.8466C147.004 53.9938 146.979 54.1164 146.938 54.2064C146.897 54.2881 146.823 54.3617 146.724 54.4271C146.617 54.4925 146.477 54.5416 146.321 54.5661C146.14 54.5906 145.885 54.607 145.547 54.607H144.848V53.1272H145.572C145.909 53.1272 146.172 53.1353 146.345 53.1517C146.493 53.168 146.625 53.2089 146.74 53.2743C146.839 53.3315 146.905 53.4051 146.946 53.4869C146.979 53.585 147.004 53.7076 147.004 53.8466Z" fill="white"/>
<path d="M154.154 51.9416H151.727V49.5952H150.262V55.8661H151.727V53.2661H154.154V55.8661H155.627V49.5952H154.154V51.9416Z" fill="white"/>
<path d="M162.102 49.9467C161.855 49.7668 161.559 49.636 161.222 49.5624C160.629 49.4316 159.798 49.4153 158.984 49.5543C158.605 49.6197 158.325 49.6769 158.128 49.7341L157.947 49.7832V50.9605L157.996 51.2058H158.243L158.334 51.1895C158.655 51.0668 158.976 50.9687 159.28 50.9033C159.823 50.7888 160.267 50.7888 160.662 50.8461C160.827 50.8706 160.967 50.9115 161.074 50.9769C161.181 51.0341 161.263 51.1159 161.312 51.2222C161.362 51.3121 161.395 51.4347 161.395 51.5737C160.909 51.5983 160.44 51.6391 160.012 51.6882C159.494 51.7454 159.041 51.8599 158.663 52.0234C158.268 52.1951 157.963 52.4404 157.75 52.7429C157.536 53.0536 157.42 53.4624 157.42 53.9447C157.42 54.5498 157.634 55.0485 158.046 55.4409C158.457 55.8252 158.959 56.0214 159.551 56.0214C159.856 56.0214 160.127 55.9887 160.358 55.9315C160.58 55.8743 160.786 55.8007 160.958 55.7189C161.098 55.6535 161.246 55.5717 161.395 55.4655V55.8579H162.859V51.6882C162.859 51.2794 162.793 50.936 162.67 50.6498C162.555 50.3719 162.357 50.1348 162.102 49.9467ZM161.411 52.8492V54.0756C161.214 54.2227 160.991 54.3454 160.761 54.4598C160.514 54.5743 160.226 54.6397 159.922 54.6397C159.568 54.6397 159.313 54.5743 159.157 54.4435C159.008 54.3208 158.943 54.141 158.943 53.8793C158.943 53.6504 159 53.4869 159.132 53.3642C159.272 53.2253 159.469 53.119 159.708 53.0536C159.93 52.9963 160.234 52.9473 160.621 52.9146C160.917 52.89 161.181 52.8655 161.411 52.8492Z" fill="white"/>
<path d="M166.62 49.6687C166.315 49.7178 166.044 49.8241 165.813 49.9712C165.575 50.1266 165.369 50.3228 165.213 50.5681C165.048 50.8215 164.966 51.1241 164.966 51.4838C164.966 51.9989 165.097 52.4322 165.369 52.7592C165.575 53.0127 165.871 53.2089 166.249 53.3561L164.184 55.8661H165.97L167.772 53.5687H168.561V55.8661H170.034V49.5952H167.549C167.22 49.5952 166.908 49.6197 166.62 49.6687ZM168.57 50.8624V52.3259H167.607C167.401 52.3259 167.204 52.3096 167.039 52.2769C166.891 52.2523 166.776 52.1951 166.677 52.1215C166.587 52.0479 166.529 51.9743 166.504 51.9008C166.472 51.8108 166.455 51.68 166.455 51.5165C166.455 51.402 166.48 51.2957 166.529 51.2058C166.57 51.1159 166.636 51.0505 166.727 51.0014C166.842 50.936 166.941 50.9033 167.031 50.887C167.13 50.8706 167.319 50.8624 167.574 50.8624H168.57Z" fill="white"/>
<path d="M176.831 55.8661H178.303V50.9197H180.722V55.8661H182.195V49.5952H176.831V55.8661Z" fill="white"/>
<path d="M187.099 49.4398C186.186 49.4398 185.437 49.7423 184.869 50.3473C184.31 50.9442 184.022 51.7618 184.022 52.7674C184.022 53.7894 184.318 54.5906 184.911 55.1548C185.495 55.7189 186.318 56.0051 187.346 56.0051C187.741 56.0051 188.128 55.956 188.498 55.8579C188.852 55.7598 189.206 55.6453 189.543 55.4981L189.691 55.4327V54.2064L189.642 53.9611H189.304L189.23 54.0265C189.082 54.1573 188.819 54.2963 188.449 54.4434C187.799 54.6969 187.116 54.7214 186.597 54.5497C186.383 54.4762 186.194 54.3699 186.038 54.2309C185.882 54.0919 185.75 53.8957 185.659 53.6749C185.585 53.5032 185.544 53.2988 185.528 53.0781H189.806V52.3095C189.806 51.4102 189.568 50.6989 189.099 50.2002C188.622 49.6932 187.955 49.4398 187.099 49.4398ZM188.342 51.8435H185.552C185.618 51.5574 185.758 51.3203 185.964 51.1159C186.227 50.8542 186.581 50.7234 187.042 50.7234C187.494 50.7234 187.815 50.8379 188.029 51.0668C188.202 51.2548 188.309 51.5165 188.342 51.8435Z" fill="white"/>
<path d="M195.146 52.4567C194.99 52.4976 194.809 52.5303 194.62 52.563C194.348 52.6039 194.101 52.6284 193.879 52.6284C193.558 52.6284 193.377 52.5875 193.287 52.5467C193.163 52.4976 193.073 52.4322 193.015 52.3504C192.949 52.2523 192.9 52.1379 192.884 51.9989C192.859 51.8435 192.842 51.6555 192.842 51.4429V49.5952H191.37V51.9416C191.37 52.5875 191.559 53.0944 191.946 53.446C192.324 53.7894 192.859 53.9693 193.542 53.9693C193.896 53.9693 194.233 53.9366 194.537 53.8793C194.735 53.8385 194.941 53.7894 195.155 53.7322V55.8743H196.627V49.6033H195.155V52.4567H195.146Z" fill="white"/>
<path d="M203.827 52.9636C203.712 52.6938 203.531 52.4731 203.292 52.2932C203.021 52.097 202.749 51.9662 202.47 51.9171C202.215 51.8681 201.861 51.8435 201.408 51.8435H200.33V49.587H198.857V55.8579H201.383C201.82 55.8579 202.173 55.817 202.453 55.7434C202.741 55.6617 203.021 55.5227 203.268 55.3346C203.49 55.1711 203.671 54.9586 203.803 54.6887C203.934 54.4271 204 54.1328 204 53.8221C204 53.5196 203.942 53.2253 203.827 52.9636ZM202.494 53.8466C202.494 53.9938 202.47 54.1164 202.428 54.2064C202.387 54.2881 202.313 54.3617 202.214 54.4271C202.108 54.4925 201.968 54.5416 201.811 54.5661C201.63 54.5906 201.375 54.607 201.038 54.607H200.338V53.1272H201.063C201.4 53.1272 201.663 53.1353 201.836 53.1517C201.984 53.168 202.116 53.2089 202.231 53.2743C202.33 53.3315 202.396 53.4051 202.437 53.4869C202.478 53.585 202.494 53.7076 202.494 53.8466Z" fill="white"/>
</svg>
